<mxfile host="app.diagrams.net" modified="2024-02-07T20:17:37.039Z" agent="Mozilla/5.0 (Windows NT 10.0; Win64; x64) AppleWebKit/537.36 (KHTML, like Gecko) Chrome/121.0.0.0 Safari/537.36" etag="M18LigpfGbv1PjnwthQW" version="23.1.1" type="device">
  <diagram name="Page-1" id="FDUqJJD7T0gCQpafPzPX">
    <mxGraphModel dx="3053" dy="1565" grid="1" gridSize="10" guides="1" tooltips="1" connect="1" arrows="1" fold="1" page="1" pageScale="1" pageWidth="827" pageHeight="1169" math="0" shadow="0">
      <root>
        <mxCell id="0" />
        <mxCell id="1" parent="0" />
        <mxCell id="NmfkcR2Ydh_nO2Fbmdg1-1" value="" style="shape=umlLifeline;perimeter=lifelinePerimeter;whiteSpace=wrap;html=1;container=1;dropTarget=0;collapsible=0;recursiveResize=0;outlineConnect=0;portConstraint=eastwest;newEdgeStyle={&quot;curved&quot;:0,&quot;rounded&quot;:0};participant=umlActor;fillColor=#eb9f4c;" vertex="1" parent="1">
          <mxGeometry x="30" y="120" width="20" height="900" as="geometry" />
        </mxCell>
        <mxCell id="NmfkcR2Ydh_nO2Fbmdg1-23" value="" style="html=1;points=[[0,0,0,0,5],[0,1,0,0,-5],[1,0,0,0,5],[1,1,0,0,-5]];perimeter=orthogonalPerimeter;outlineConnect=0;targetShapes=umlLifeline;portConstraint=eastwest;newEdgeStyle={&quot;curved&quot;:0,&quot;rounded&quot;:0};strokeColor=default;fillColor=#eb9f4c;" vertex="1" parent="NmfkcR2Ydh_nO2Fbmdg1-1">
          <mxGeometry x="5" y="60" width="10" height="820" as="geometry" />
        </mxCell>
        <mxCell id="NmfkcR2Ydh_nO2Fbmdg1-9" value="TalePage" style="shape=umlLifeline;perimeter=lifelinePerimeter;whiteSpace=wrap;html=1;container=1;dropTarget=0;collapsible=0;recursiveResize=0;outlineConnect=0;portConstraint=eastwest;newEdgeStyle={&quot;curved&quot;:0,&quot;rounded&quot;:0};fillColor=#eb9f4c;" vertex="1" parent="1">
          <mxGeometry x="390" y="120" width="100" height="900" as="geometry" />
        </mxCell>
        <mxCell id="NmfkcR2Ydh_nO2Fbmdg1-22" value="" style="html=1;points=[[0,0,0,0,5],[0,1,0,0,-5],[1,0,0,0,5],[1,1,0,0,-5]];perimeter=orthogonalPerimeter;outlineConnect=0;targetShapes=umlLifeline;portConstraint=eastwest;newEdgeStyle={&quot;curved&quot;:0,&quot;rounded&quot;:0};fillColor=#eb9f4c;" vertex="1" parent="NmfkcR2Ydh_nO2Fbmdg1-9">
          <mxGeometry x="45" y="60" width="10" height="730" as="geometry" />
        </mxCell>
        <mxCell id="NmfkcR2Ydh_nO2Fbmdg1-59" style="edgeStyle=orthogonalEdgeStyle;rounded=0;orthogonalLoop=1;jettySize=auto;html=1;curved=0;" edge="1" parent="NmfkcR2Ydh_nO2Fbmdg1-9">
          <mxGeometry relative="1" as="geometry">
            <mxPoint x="55.000000000000114" y="700.0044827586207" as="sourcePoint" />
            <mxPoint x="55.000000000000114" y="730.0044827586207" as="targetPoint" />
            <Array as="points">
              <mxPoint x="80" y="699.97" />
              <mxPoint x="80" y="729.97" />
            </Array>
          </mxGeometry>
        </mxCell>
        <mxCell id="NmfkcR2Ydh_nO2Fbmdg1-60" value="showSaveDialog()" style="edgeLabel;html=1;align=center;verticalAlign=middle;resizable=0;points=[];" vertex="1" connectable="0" parent="NmfkcR2Ydh_nO2Fbmdg1-59">
          <mxGeometry x="-0.2203" y="2" relative="1" as="geometry">
            <mxPoint x="18" y="-18" as="offset" />
          </mxGeometry>
        </mxCell>
        <mxCell id="NmfkcR2Ydh_nO2Fbmdg1-7" value="ChangeCardTransform" style="html=1;verticalAlign=bottom;endArrow=block;curved=0;rounded=0;" edge="1" target="NmfkcR2Ydh_nO2Fbmdg1-30" parent="1" source="NmfkcR2Ydh_nO2Fbmdg1-23">
          <mxGeometry x="-0.4555" relative="1" as="geometry">
            <mxPoint x="42.395714285714334" y="250" as="sourcePoint" />
            <mxPoint x="437.61" y="250" as="targetPoint" />
            <Array as="points">
              <mxPoint x="220" y="250" />
            </Array>
            <mxPoint as="offset" />
          </mxGeometry>
        </mxCell>
        <mxCell id="NmfkcR2Ydh_nO2Fbmdg1-25" value="MemoryCard&lt;br&gt;Widget" style="shape=umlLifeline;perimeter=lifelinePerimeter;whiteSpace=wrap;html=1;container=1;dropTarget=0;collapsible=0;recursiveResize=0;outlineConnect=0;portConstraint=eastwest;newEdgeStyle={&quot;curved&quot;:0,&quot;rounded&quot;:0};fillColor=#eb9f4c;" vertex="1" parent="1">
          <mxGeometry x="190" y="120" width="100" height="900" as="geometry" />
        </mxCell>
        <mxCell id="NmfkcR2Ydh_nO2Fbmdg1-30" value="" style="html=1;points=[[0,0,0,0,5],[0,1,0,0,-5],[1,0,0,0,5],[1,1,0,0,-5]];perimeter=orthogonalPerimeter;outlineConnect=0;targetShapes=umlLifeline;portConstraint=eastwest;newEdgeStyle={&quot;curved&quot;:0,&quot;rounded&quot;:0};fillColor=#eb9f4c;" vertex="1" parent="NmfkcR2Ydh_nO2Fbmdg1-25">
          <mxGeometry x="45" y="120" width="10" height="90" as="geometry" />
        </mxCell>
        <mxCell id="NmfkcR2Ydh_nO2Fbmdg1-33" style="edgeStyle=orthogonalEdgeStyle;rounded=0;orthogonalLoop=1;jettySize=auto;html=1;curved=0;exitX=1;exitY=0;exitDx=0;exitDy=5;exitPerimeter=0;" edge="1" parent="NmfkcR2Ydh_nO2Fbmdg1-25" source="NmfkcR2Ydh_nO2Fbmdg1-30" target="NmfkcR2Ydh_nO2Fbmdg1-30">
          <mxGeometry relative="1" as="geometry" />
        </mxCell>
        <mxCell id="NmfkcR2Ydh_nO2Fbmdg1-34" value="updateTransform(Matrix4 transform)" style="edgeLabel;html=1;align=center;verticalAlign=middle;resizable=0;points=[];" vertex="1" connectable="0" parent="NmfkcR2Ydh_nO2Fbmdg1-33">
          <mxGeometry x="-0.2203" y="2" relative="1" as="geometry">
            <mxPoint x="63" y="-27" as="offset" />
          </mxGeometry>
        </mxCell>
        <mxCell id="NmfkcR2Ydh_nO2Fbmdg1-26" value="AppManager" style="shape=umlLifeline;perimeter=lifelinePerimeter;whiteSpace=wrap;html=1;container=1;dropTarget=0;collapsible=0;recursiveResize=0;outlineConnect=0;portConstraint=eastwest;newEdgeStyle={&quot;curved&quot;:0,&quot;rounded&quot;:0};fillColor=#eb9f4c;" vertex="1" parent="1">
          <mxGeometry x="590" y="120" width="100" height="900" as="geometry" />
        </mxCell>
        <mxCell id="NmfkcR2Ydh_nO2Fbmdg1-36" value="" style="html=1;points=[[0,0,0,0,5],[0,1,0,0,-5],[1,0,0,0,5],[1,1,0,0,-5]];perimeter=orthogonalPerimeter;outlineConnect=0;targetShapes=umlLifeline;portConstraint=eastwest;newEdgeStyle={&quot;curved&quot;:0,&quot;rounded&quot;:0};fillColor=#eb9f4c;" vertex="1" parent="NmfkcR2Ydh_nO2Fbmdg1-26">
          <mxGeometry x="45" y="200" width="10" height="20" as="geometry" />
        </mxCell>
        <mxCell id="NmfkcR2Ydh_nO2Fbmdg1-27" value="CardService" style="shape=umlLifeline;perimeter=lifelinePerimeter;whiteSpace=wrap;html=1;container=1;dropTarget=0;collapsible=0;recursiveResize=0;outlineConnect=0;portConstraint=eastwest;newEdgeStyle={&quot;curved&quot;:0,&quot;rounded&quot;:0};fillColor=#eb9f4c;" vertex="1" parent="1">
          <mxGeometry x="990" y="120" width="100" height="900" as="geometry" />
        </mxCell>
        <mxCell id="NmfkcR2Ydh_nO2Fbmdg1-28" value="Firestore" style="shape=umlLifeline;perimeter=lifelinePerimeter;whiteSpace=wrap;html=1;container=1;dropTarget=0;collapsible=0;recursiveResize=0;outlineConnect=0;portConstraint=eastwest;newEdgeStyle={&quot;curved&quot;:0,&quot;rounded&quot;:0};fillColor=#eb9f4c;" vertex="1" parent="1">
          <mxGeometry x="1190.5" y="120" width="100" height="900" as="geometry" />
        </mxCell>
        <mxCell id="NmfkcR2Ydh_nO2Fbmdg1-31" style="edgeStyle=orthogonalEdgeStyle;rounded=0;orthogonalLoop=1;jettySize=auto;html=1;curved=0;exitX=0;exitY=0;exitDx=0;exitDy=5;exitPerimeter=0;entryX=1;entryY=0;entryDx=0;entryDy=5;entryPerimeter=0;" edge="1" parent="1" source="NmfkcR2Ydh_nO2Fbmdg1-22" target="NmfkcR2Ydh_nO2Fbmdg1-23">
          <mxGeometry relative="1" as="geometry" />
        </mxCell>
        <mxCell id="NmfkcR2Ydh_nO2Fbmdg1-32" value="Show TalePage UI and cards" style="edgeLabel;html=1;align=center;verticalAlign=middle;resizable=0;points=[];" vertex="1" connectable="0" parent="NmfkcR2Ydh_nO2Fbmdg1-31">
          <mxGeometry x="0.1485" y="-1" relative="1" as="geometry">
            <mxPoint x="-71" y="-14" as="offset" />
          </mxGeometry>
        </mxCell>
        <mxCell id="NmfkcR2Ydh_nO2Fbmdg1-35" value="setCardTransform&lt;br&gt;(String name, Matrix4 transform)" style="html=1;verticalAlign=bottom;endArrow=block;curved=0;rounded=0;exitX=1;exitY=1;exitDx=0;exitDy=-5;exitPerimeter=0;" edge="1" parent="1" source="NmfkcR2Ydh_nO2Fbmdg1-30" target="NmfkcR2Ydh_nO2Fbmdg1-36">
          <mxGeometry x="0.0068" relative="1" as="geometry">
            <mxPoint x="443.70000000000005" y="310.0400000000001" as="sourcePoint" />
            <mxPoint x="635" y="310" as="targetPoint" />
            <mxPoint as="offset" />
          </mxGeometry>
        </mxCell>
        <mxCell id="NmfkcR2Ydh_nO2Fbmdg1-37" value="show the new cards position local" style="html=1;verticalAlign=bottom;endArrow=open;dashed=1;endSize=8;curved=0;rounded=0;" edge="1" parent="1" source="NmfkcR2Ydh_nO2Fbmdg1-30" target="NmfkcR2Ydh_nO2Fbmdg1-23">
          <mxGeometry relative="1" as="geometry">
            <mxPoint x="430" y="281" as="sourcePoint" />
            <mxPoint x="39.5" y="281.36" as="targetPoint" />
          </mxGeometry>
        </mxCell>
        <mxCell id="NmfkcR2Ydh_nO2Fbmdg1-38" value="Click on save cards position" style="html=1;verticalAlign=bottom;endArrow=block;curved=0;rounded=0;" edge="1" parent="1" source="NmfkcR2Ydh_nO2Fbmdg1-23" target="NmfkcR2Ydh_nO2Fbmdg1-22">
          <mxGeometry x="-0.4555" relative="1" as="geometry">
            <mxPoint x="45" y="370" as="sourcePoint" />
            <mxPoint x="435" y="370" as="targetPoint" />
            <Array as="points">
              <mxPoint x="350" y="370" />
            </Array>
            <mxPoint as="offset" />
          </mxGeometry>
        </mxCell>
        <mxCell id="NmfkcR2Ydh_nO2Fbmdg1-43" value="" style="html=1;points=[[0,0,0,0,5],[0,1,0,0,-5],[1,0,0,0,5],[1,1,0,0,-5]];perimeter=orthogonalPerimeter;outlineConnect=0;targetShapes=umlLifeline;portConstraint=eastwest;newEdgeStyle={&quot;curved&quot;:0,&quot;rounded&quot;:0};fillColor=#eb9f4c;" vertex="1" parent="1">
          <mxGeometry x="635" y="400" width="10" height="340" as="geometry" />
        </mxCell>
        <mxCell id="NmfkcR2Ydh_nO2Fbmdg1-44" value="getCurrentTaleId()" style="html=1;verticalAlign=bottom;endArrow=block;curved=0;rounded=0;entryX=0;entryY=0;entryDx=0;entryDy=5;" edge="1" target="NmfkcR2Ydh_nO2Fbmdg1-43" parent="1" source="NmfkcR2Ydh_nO2Fbmdg1-22">
          <mxGeometry relative="1" as="geometry">
            <mxPoint x="530" y="405" as="sourcePoint" />
          </mxGeometry>
        </mxCell>
        <mxCell id="NmfkcR2Ydh_nO2Fbmdg1-45" value="return currentTaleId" style="html=1;verticalAlign=bottom;endArrow=open;dashed=1;endSize=8;curved=0;rounded=0;" edge="1" source="NmfkcR2Ydh_nO2Fbmdg1-43" parent="1">
          <mxGeometry x="-0.0016" relative="1" as="geometry">
            <mxPoint x="445.0000000000001" y="450.00000000000006" as="targetPoint" />
            <mxPoint x="645" y="450.00000000000006" as="sourcePoint" />
            <mxPoint as="offset" />
          </mxGeometry>
        </mxCell>
        <mxCell id="NmfkcR2Ydh_nO2Fbmdg1-48" value="getCardsTransform()" style="html=1;verticalAlign=bottom;endArrow=block;curved=0;rounded=0;entryX=0;entryY=0;entryDx=0;entryDy=5;" edge="1" parent="1">
          <mxGeometry relative="1" as="geometry">
            <mxPoint x="445" y="500" as="sourcePoint" />
            <mxPoint x="635" y="500" as="targetPoint" />
          </mxGeometry>
        </mxCell>
        <mxCell id="NmfkcR2Ydh_nO2Fbmdg1-49" value="return&amp;nbsp;cardsNewTransform" style="html=1;verticalAlign=bottom;endArrow=open;dashed=1;endSize=8;curved=0;rounded=0;" edge="1" parent="1">
          <mxGeometry x="0.0018" relative="1" as="geometry">
            <mxPoint x="445.0000000000001" y="545" as="targetPoint" />
            <mxPoint x="635" y="545" as="sourcePoint" />
            <mxPoint as="offset" />
          </mxGeometry>
        </mxCell>
        <mxCell id="NmfkcR2Ydh_nO2Fbmdg1-50" value="getCards()" style="html=1;verticalAlign=bottom;endArrow=block;curved=0;rounded=0;entryX=0;entryY=0;entryDx=0;entryDy=5;" edge="1" parent="1">
          <mxGeometry relative="1" as="geometry">
            <mxPoint x="445" y="585" as="sourcePoint" />
            <mxPoint x="635" y="585" as="targetPoint" />
          </mxGeometry>
        </mxCell>
        <mxCell id="NmfkcR2Ydh_nO2Fbmdg1-51" value="return&amp;nbsp;userCards" style="html=1;verticalAlign=bottom;endArrow=open;dashed=1;endSize=8;curved=0;rounded=0;" edge="1" parent="1">
          <mxGeometry x="0.0018" relative="1" as="geometry">
            <mxPoint x="445.0000000000001" y="630" as="targetPoint" />
            <mxPoint x="635" y="630" as="sourcePoint" />
            <mxPoint as="offset" />
          </mxGeometry>
        </mxCell>
        <mxCell id="NmfkcR2Ydh_nO2Fbmdg1-52" value="updateCardTransform(String taleId, String name, Matrix4 transform)" style="html=1;verticalAlign=bottom;endArrow=block;curved=0;rounded=0;" edge="1" parent="1" target="NmfkcR2Ydh_nO2Fbmdg1-39">
          <mxGeometry relative="1" as="geometry">
            <mxPoint x="445" y="670" as="sourcePoint" />
            <mxPoint x="635" y="670" as="targetPoint" />
          </mxGeometry>
        </mxCell>
        <mxCell id="NmfkcR2Ydh_nO2Fbmdg1-39" value="" style="html=1;points=[[0,0,0,0,5],[0,1,0,0,-5],[1,0,0,0,5],[1,1,0,0,-5]];perimeter=orthogonalPerimeter;outlineConnect=0;targetShapes=umlLifeline;portConstraint=eastwest;newEdgeStyle={&quot;curved&quot;:0,&quot;rounded&quot;:0};fillColor=#eb9f4c;" vertex="1" parent="1">
          <mxGeometry x="1035" y="660" width="10" height="130" as="geometry" />
        </mxCell>
        <mxCell id="NmfkcR2Ydh_nO2Fbmdg1-54" value="&lt;div&gt;clearCardTransform()&lt;br&gt;&lt;/div&gt;" style="html=1;verticalAlign=bottom;endArrow=block;curved=0;rounded=0;entryX=0;entryY=0;entryDx=0;entryDy=5;" edge="1" parent="1">
          <mxGeometry relative="1" as="geometry">
            <mxPoint x="445" y="720" as="sourcePoint" />
            <mxPoint x="635" y="720" as="targetPoint" />
          </mxGeometry>
        </mxCell>
        <mxCell id="NmfkcR2Ydh_nO2Fbmdg1-55" value="return&amp;nbsp;int" style="html=1;verticalAlign=bottom;endArrow=open;dashed=1;endSize=8;curved=0;rounded=0;exitX=0.5;exitY=0.846;exitDx=0;exitDy=0;exitPerimeter=0;" edge="1" parent="1" source="NmfkcR2Ydh_nO2Fbmdg1-39">
          <mxGeometry x="0.0018" relative="1" as="geometry">
            <mxPoint x="445" y="770" as="targetPoint" />
            <mxPoint x="835" y="770" as="sourcePoint" />
            <mxPoint as="offset" />
          </mxGeometry>
        </mxCell>
        <mxCell id="NmfkcR2Ydh_nO2Fbmdg1-56" value="" style="html=1;points=[[0,0,0,0,5],[0,1,0,0,-5],[1,0,0,0,5],[1,1,0,0,-5]];perimeter=orthogonalPerimeter;outlineConnect=0;targetShapes=umlLifeline;portConstraint=eastwest;newEdgeStyle={&quot;curved&quot;:0,&quot;rounded&quot;:0};fillColor=#eb9f4c;" vertex="1" parent="1">
          <mxGeometry x="1235.5" y="680" width="10" height="80" as="geometry" />
        </mxCell>
        <mxCell id="NmfkcR2Ydh_nO2Fbmdg1-57" value="update(String cardData)" style="html=1;verticalAlign=bottom;endArrow=block;curved=0;rounded=0;entryX=0;entryY=0;entryDx=0;entryDy=5;" edge="1" parent="1">
          <mxGeometry relative="1" as="geometry">
            <mxPoint x="1045.5" y="690" as="sourcePoint" />
            <mxPoint x="1235.5" y="690" as="targetPoint" />
            <mxPoint as="offset" />
          </mxGeometry>
        </mxCell>
        <mxCell id="NmfkcR2Ydh_nO2Fbmdg1-58" value="return" style="html=1;verticalAlign=bottom;endArrow=open;dashed=1;endSize=8;curved=0;rounded=0;" edge="1" parent="1">
          <mxGeometry x="0.0018" relative="1" as="geometry">
            <mxPoint x="1045" y="750" as="targetPoint" />
            <mxPoint x="1235.5" y="750" as="sourcePoint" />
            <mxPoint as="offset" />
          </mxGeometry>
        </mxCell>
        <mxCell id="NmfkcR2Ydh_nO2Fbmdg1-63" value="DialogPopup&lt;br&gt;Widget" style="shape=umlLifeline;perimeter=lifelinePerimeter;whiteSpace=wrap;html=1;container=1;dropTarget=0;collapsible=0;recursiveResize=0;outlineConnect=0;portConstraint=eastwest;newEdgeStyle={&quot;curved&quot;:0,&quot;rounded&quot;:0};fillColor=#eb9f4c;" vertex="1" parent="1">
          <mxGeometry x="790" y="120" width="100" height="900" as="geometry" />
        </mxCell>
        <mxCell id="NmfkcR2Ydh_nO2Fbmdg1-64" value="" style="html=1;points=[[0,0,0,0,5],[0,1,0,0,-5],[1,0,0,0,5],[1,1,0,0,-5]];perimeter=orthogonalPerimeter;outlineConnect=0;targetShapes=umlLifeline;portConstraint=eastwest;newEdgeStyle={&quot;curved&quot;:0,&quot;rounded&quot;:0};fillColor=#eb9f4c;" vertex="1" parent="1">
          <mxGeometry x="835" y="880" width="10" height="80" as="geometry" />
        </mxCell>
        <mxCell id="NmfkcR2Ydh_nO2Fbmdg1-65" value="&lt;div&gt;show(BuildContext context)&lt;br&gt;&lt;/div&gt;" style="html=1;verticalAlign=bottom;endArrow=block;curved=0;rounded=0;" edge="1" parent="1" target="NmfkcR2Ydh_nO2Fbmdg1-64">
          <mxGeometry relative="1" as="geometry">
            <mxPoint x="445" y="889.66" as="sourcePoint" />
            <mxPoint x="635" y="889.66" as="targetPoint" />
          </mxGeometry>
        </mxCell>
        <mxCell id="NmfkcR2Ydh_nO2Fbmdg1-66" value="show the new cards position local" style="html=1;verticalAlign=bottom;endArrow=open;dashed=1;endSize=8;curved=0;rounded=0;" edge="1" parent="1">
          <mxGeometry relative="1" as="geometry">
            <mxPoint x="834.9999999999998" y="950" as="sourcePoint" />
            <mxPoint x="45" y="950" as="targetPoint" />
          </mxGeometry>
        </mxCell>
      </root>
    </mxGraphModel>
  </diagram>
</mxfile>
